<svg xmlns="http://www.w3.org/2000/svg" width="222.783" height="323.556" viewBox="0 0 167.0869141 242.6669922"><defs xmlns="http://www.w3.org/2000/svg"><linearGradient id="a"><stop stop-color="#830007" offset="0"/><stop stop-color="#e00003" offset="1"/></linearGradient><linearGradient xmlns:xlink="http://www.w3.org/1999/xlink" id="c" x1="138.23" xlink:href="#a" gradientUnits="userSpaceOnUse" y1="322" gradientTransform="scale(.85424 1.1706)" x2="36.52" y2="18.728"/><linearGradient xmlns:xlink="http://www.w3.org/1999/xlink" id="b" x1="22.029" xlink:href="#a" gradientUnits="userSpaceOnUse" y1="17.153" gradientTransform="scale(.85537 1.1691)" x2="222" y2="322"/><pattern id="d" width="28.284" patternUnits="userSpaceOnUse" patternTransform="translate(28.9 -13.2)" height="27.5"><g fill="#fff"><path transform="rotate(45 38.321 72.515) scale(2)" d="M-17.526 21.668h5v5h-5z"/><path transform="rotate(45 38.321 72.515) scale(2)" d="M-12.803 26.391h5v5h-5zm.277-9.723h5v5h-5z"/><path transform="rotate(45 38.321 72.515) scale(2)" d="M-7.803 21.391h5v5h-5z"/></g></pattern></defs><path xmlns="http://www.w3.org/2000/svg" stroke="url(#b)" stroke-width=".5" fill="url(#c)" d="M166.837 235.548c0 3.777-3.087 6.869-6.871 6.869H7.11c-3.775 0-6.861-3.092-6.861-6.87V7.12C.25 3.343 3.336.25 7.11.25h152.856c3.784 0 6.87 3.093 6.87 6.87v228.428z"/><path xmlns="http://www.w3.org/2000/svg" stroke="url(#b)" stroke-width=".5" fill="url(#d)" d="M166.837 235.548c0 3.777-3.087 6.869-6.871 6.869H7.11c-3.775 0-6.861-3.092-6.861-6.87V7.12C.25 3.343 3.336.25 7.11.25h152.856c3.784 0 6.87 3.093 6.87 6.87v228.428z"/></svg>